# xmcd CD database file
#
# Track frame offsets:
#	150
#	19756
#	41847
#	60665
#	76619
#	93135
#	113990
#	129305
#	149462
#	172297
#	189970
#	208545
#	234089
#
# Disc length: 3269 seconds
#
# Revision: 2
# Processed by: cddbd v1.5.2PL0 Copyright (c) Steve Scherf et al.
# Submitted via: CDex 1.78
#
DISCID=a50cc30d
DTITLE=Barney Bentall - Gift Horse
DYEAR=2006
DGENRE=Country
TTITLE0=Dream Of A Day
TTITLE1=Tell Me Is It True
TTITLE2=A Man Is
TTITLE3=Too Good To Be True
TTITLE4=Back Up On The Horse
TTITLE5=The`Ballad Of Old Tom Jones
TTITLE6=You And I Will Meet Again
TTITLE7=Dance For Me
TTITLE8=Talk To God
TTITLE9=Innocence
TTITLE10=Gypsy Boy
TTITLE11=Around The Bend
TTITLE12=Untitled Track
EXTD=YEAR: 2006
EXTT0=
EXTT1=
EXTT2=
EXTT3=
EXTT4=
EXTT5=
EXTT6=
EXTT7=
EXTT8=
EXTT9=
EXTT10=
EXTT11=
EXTT12=
PLAYORDER=
